<svg preserveAspectRatio="none" overflow="visible" style="display: block;" width="35.4286" height="34.2857" viewBox="0 0 35.4286 34.2857" fill="none" xmlns="http://www.w3.org/2000/svg">
<g id="integration-shopify" clip-path="url(#clip0_0_30)">
<path id="Vector" d="M29.4739 6.61036C29.4531 6.42955 29.2871 6.3492 29.1625 6.32911C29.0379 6.30902 26.5261 6.28893 26.5261 6.28893C26.5261 6.28893 24.4087 4.30009 24.2011 4.0992C23.9935 3.8983 23.5922 3.95857 23.4261 3.99875C23.4261 3.99875 23.0248 4.11929 22.3605 4.32018C22.2567 3.97866 22.0906 3.55009 21.8554 3.12152C21.1011 1.72196 20.0147 0.992054 18.6723 0.992054C18.5893 0.992054 18.4855 0.992054 18.4025 1.01214C18.3609 0.971965 18.3194 0.931786 18.2779 0.871518C17.6759 0.26884 16.9424 -0.0191069 16.0636 0.000982396C14.3475 0.041161 12.6453 1.23982 11.2475 3.38938C10.265 4.88938 9.53147 6.77777 9.31697 8.23759C7.34487 8.82688 5.96786 9.22866 5.9471 9.24875C4.96451 9.55009 4.92299 9.57018 4.79152 10.4876C4.68772 11.1572 2.08594 30.6438 2.08594 30.6438L23.8967 34.2867L33.342 32.0166C33.3489 32.0166 29.4946 6.77107 29.4739 6.61036ZM21.2603 4.64161C20.7551 4.78223 20.1946 4.96304 19.565 5.15054C19.5442 4.32018 19.4404 3.14161 19.0391 2.13045C20.3538 2.37152 20.9835 3.79116 21.2603 4.64161ZM18.4301 5.49875C17.2746 5.84027 16.0429 6.20857 14.7835 6.59027C15.1364 5.29116 15.8076 3.99205 16.6241 3.14161C16.9355 2.82018 17.3576 2.47196 17.8627 2.27107C18.3471 3.22866 18.4301 4.58134 18.4301 5.49875ZM16.0844 1.11929C16.4857 1.11929 16.8179 1.19964 17.1085 1.38045C16.6449 1.60143 16.1882 1.94964 15.7661 2.39161C14.6797 3.53 13.8355 5.27107 13.5033 6.97197C12.4585 7.2733 11.4482 7.58134 10.5071 7.86259C11.1368 5.19072 13.4411 1.19964 16.0844 1.11929Z" fill="#95BF47"/>
<path id="Vector_2" d="M29.1583 6.32896C29.0337 6.30887 26.5219 6.28878 26.5219 6.28878C26.5219 6.28878 24.4045 4.29994 24.1969 4.09905C24.1138 4.01869 24.01 3.97852 23.9062 3.97852V34.2866L33.3516 32.0165C33.3516 32.0165 29.4973 6.79771 29.4766 6.61021C29.4281 6.42941 29.2828 6.34905 29.1583 6.32896Z" fill="#5E8E3E"/>
<path id="Vector_3" d="M18.6576 11.0306L17.5712 15.0016C17.5712 15.0016 16.3533 14.4525 14.8864 14.5529C12.7482 14.6735 12.7275 15.9726 12.7482 16.3141C12.8728 18.0953 17.6958 18.4837 17.9656 22.6422C18.1732 25.9235 16.1665 28.1601 13.2741 28.3409C9.79353 28.5418 7.89062 26.5797 7.89062 26.5797L8.62411 23.5596C8.62411 23.5596 10.5547 24.9592 12.0839 24.8788C13.0873 24.8185 13.4471 24.0284 13.4056 23.4592C13.2603 21.1489 9.32299 21.2694 9.06696 17.4793C8.85938 14.2784 11.0391 11.0306 15.8344 10.7293C17.7165 10.5685 18.6576 11.0306 18.6576 11.0306Z" fill="white"/>
</g>
<defs>
<clipPath id="clip0_0_30">
<rect width="35.4286" height="34.2857" fill="white"/>
</clipPath>
</defs>
</svg>
