<svg preserveAspectRatio="none" overflow="visible" style="display: block;" width="212.615" height="48.7554" viewBox="0 0 212.615 48.7554" fill="none" xmlns="http://www.w3.org/2000/svg">
<path id="Vector" d="M0.807678 47.14C0.36161 47.14 0 47.5016 0 47.9477C0 48.3938 0.36161 48.7554 0.807678 48.7554V47.9477V47.14ZM212.379 6.51882C212.694 6.20341 212.694 5.69201 212.379 5.37659L207.239 0.236563C206.923 -0.0788546 206.412 -0.0788546 206.097 0.236563C205.781 0.551981 205.781 1.06337 206.097 1.37879L210.665 5.94771L206.097 10.5166C205.781 10.832 205.781 11.3434 206.097 11.6589C206.412 11.9743 206.923 11.9743 207.239 11.6589L212.379 6.51882ZM0.807678 47.9477V48.7554C48.9624 48.7554 84.8819 38.2238 117.186 27.7158C149.509 17.2019 178.109 6.75539 211.808 6.75539V5.94771V5.14003C177.797 5.14003 148.924 15.6935 116.687 26.1796C84.4313 36.6717 48.7052 47.14 0.807678 47.14V47.9477Z" fill="url(#paint0_linear_0_4)"/>
<defs>
<linearGradient id="paint0_linear_0_4" x1="0.807678" y1="48.1164" x2="211.808" y2="48.1164" gradientUnits="userSpaceOnUse">
<stop stop-color="#2269FF" stop-opacity="0"/>
<stop offset="1" stop-color="#91C6FF"/>
</linearGradient>
</defs>
</svg>
